<?xml version="1.0" encoding="UTF-8" standalone="no"?>
<!-- Created with Inkscape (http://www.inkscape.org/) -->

<svg
   xmlns:dc="http://purl.org/dc/elements/1.1/"
   xmlns:cc="http://creativecommons.org/ns#"
   xmlns:rdf="http://www.w3.org/1999/02/22-rdf-syntax-ns#"
   xmlns:svg="http://www.w3.org/2000/svg"
   xmlns="http://www.w3.org/2000/svg"
   xmlns:sodipodi="http://sodipodi.sourceforge.net/DTD/sodipodi-0.dtd"
   xmlns:inkscape="http://www.inkscape.org/namespaces/inkscape"
   width="53.320271mm"
   height="63.877415mm"
   viewBox="0 0 53.320271 63.877414"
   version="1.1"
   id="svg8"
   inkscape:version="0.92.3 (2405546, 2018-03-11)"
   sodipodi:docname="logo.svg">
  <defs
     id="defs2" />
  <sodipodi:namedview
     id="base"
     pagecolor="#ffffff"
     bordercolor="#666666"
     borderopacity="1.0"
     inkscape:pageopacity="0.0"
     inkscape:pageshadow="2"
     inkscape:zoom="0.70710678"
     inkscape:cx="-173.08714"
     inkscape:cy="314.04448"
     inkscape:document-units="mm"
     inkscape:current-layer="layer1"
     showgrid="false"
     inkscape:window-width="1920"
     inkscape:window-height="1137"
     inkscape:window-x="-8"
     inkscape:window-y="-8"
     inkscape:window-maximized="1"
     fit-margin-top="0"
     fit-margin-left="0"
     fit-margin-right="0"
     fit-margin-bottom="0" />
  <g
     inkscape:label="Layer 1"
     inkscape:groupmode="layer"
     id="layer1"
     transform="translate(-35.179321,-105.69049)">
    <g
       id="gdelogo"
       transform="matrix(2.7915768,0,0,2.7915768,-147.0052,-286.21742)">
      <path
         sodipodi:nodetypes="cczcc"
         inkscape:connector-curvature="0"
         id="path860"
         d="m 83.246264,146.01746 -4.633354,0.0152 c 0,0 -4.677287,7.48905 -4.671327,7.93958 0.006,0.45052 2.100417,3.77235 2.100417,3.77235 z"
         style="fill:#249e5e;fill-opacity:1;stroke:none;stroke-width:0.09409866px;stroke-linecap:butt;stroke-linejoin:miter;stroke-opacity:1" />
      <path
         sodipodi:nodetypes="ccccc"
         inkscape:connector-curvature="0"
         id="path1335"
         d="m 78.394301,153.91474 -2.352302,3.82985 2.668847,4.30636 h 4.57699 z"
         style="fill:#fcc851;fill-opacity:1;stroke:none;stroke-width:0.26458332px;stroke-linecap:butt;stroke-linejoin:miter;stroke-opacity:1" />
      <path
         inkscape:connector-curvature="0"
         id="path1337"
         d="m 70.559123,141.30415 h -4.643807 l 4.243069,6.9491 2.973208,-2.70619 z"
         style="fill:#d9453d;fill-opacity:1;stroke:none;stroke-width:0.26458332px;stroke-linecap:butt;stroke-linejoin:miter;stroke-opacity:1"
         sodipodi:nodetypes="ccccc" />
      <path
         inkscape:connector-curvature="0"
         id="path1339"
         d="m 73.131593,145.54706 -2.973374,2.7061 0.668176,1.1359 z"
         style="fill:#b13d37;fill-opacity:1;stroke:none;stroke-width:0.26458332px;stroke-linecap:butt;stroke-linejoin:miter;stroke-opacity:1" />
      <path
         sodipodi:nodetypes="ccscc"
         inkscape:connector-curvature="0"
         id="path1341"
         d="m 65.915316,157.30691 7.216299,-11.76002 c 0,0 2.13895,3.00701 2.138135,3.87558 -7.49e-4,0.79892 -4.744036,7.95126 -4.744036,7.95126 z"
         style="fill:#4688f1;fill-opacity:1;stroke:none;stroke-width:0.26458332px;stroke-linecap:butt;stroke-linejoin:miter;stroke-opacity:1" />
    </g>
    <g
       transform="matrix(0.09441092,0,0,0.09441092,-17.828718,77.15775)"
       id="g957"
       suitcase="g957">
      <rect
         style="fill:none;stroke:#eaeaea;stroke-width:12.6243;stroke-linecap:round;stroke-linejoin:round;stroke-miterlimit:10"
         x="659.29999"
         y="510.79999"
         class="st1"
         width="97.800003"
         height="144.10001"
         id="rect919" />
      <line
         style="fill:none;stroke:#333333;stroke-width:18.93650055;stroke-linecap:round;stroke-miterlimit:10"
         class="st2"
         x1="633.79999"
         y1="933.70001"
         x2="633.79999"
         y2="958.70001"
         id="line921" />
      <line
         style="fill:none;stroke:#333333;stroke-width:18.93650055;stroke-linecap:round;stroke-miterlimit:10"
         class="st2"
         x1="781"
         y1="933.70001"
         x2="781"
         y2="958.70001"
         id="line923" />
      <path
         style="fill:#c13a3a"
         inkscape:connector-curvature="0"
         class="st3"
         d="M 783.3,954.6 H 628.6 c -18.3,0 -33.2,-14.9 -33.2,-33.2 V 699.9 c 0,-18.3 14.9,-33.2 33.2,-33.2 h 154.7 c 18.3,0 33.2,14.9 33.2,33.2 v 221.5 c 0,18.3 -14.9,33.2 -33.2,33.2 z"
         id="path925" />
      <path
         style="fill:#e24b4b"
         inkscape:connector-curvature="0"
         class="st4"
         d="M 783.3,933.5 H 628.6 c -18.3,0 -33.2,-14.9 -33.2,-33.2 V 678.8 c 0,-18.3 14.9,-33.2 33.2,-33.2 h 154.7 c 18.3,0 33.2,14.9 33.2,33.2 v 221.5 c 0,18.4 -14.9,33.2 -33.2,33.2 z"
         id="path927" />
      <line
         style="fill:none;stroke:#333333;stroke-width:23.14459991;stroke-linecap:round;stroke-linejoin:round;stroke-miterlimit:10"
         class="st5"
         x1="649.40002"
         y1="510.79999"
         x2="766.29999"
         y2="510.79999"
         id="line929" />
      <g
         id="g939">
        <line
           style="fill:none;stroke:#cc333f;stroke-width:12.6243;stroke-linecap:round;stroke-linejoin:round;stroke-miterlimit:10"
           class="st6"
           x1="648.70001"
           y1="697.90002"
           x2="648.70001"
           y2="879.90002"
           id="line931" />
        <line
           style="fill:none;stroke:#cc333f;stroke-width:12.6243;stroke-linecap:round;stroke-linejoin:round;stroke-miterlimit:10"
           class="st6"
           x1="686.90002"
           y1="697.90002"
           x2="686.90002"
           y2="879.90002"
           id="line933" />
        <line
           style="fill:none;stroke:#cc333f;stroke-width:12.6243;stroke-linecap:round;stroke-linejoin:round;stroke-miterlimit:10"
           class="st6"
           x1="725"
           y1="697.90002"
           x2="725"
           y2="879.90002"
           id="line935" />
        <line
           style="fill:none;stroke:#cc333f;stroke-width:12.6243;stroke-linecap:round;stroke-linejoin:round;stroke-miterlimit:10"
           class="st6"
           x1="763.20001"
           y1="697.90002"
           x2="763.20001"
           y2="879.90002"
           id="line937" />
      </g>
      <path
         style="fill:#b3e2e5"
         inkscape:connector-curvature="0"
         class="st7"
         d="m 669.2,632.5 c -1.1,-1 -2.3,-1.7 -3.7,-2.2 v 4.7 c 0.3,0.2 0.6,0.4 0.8,0.6 v 0 c 1.7,1.6 2.5,4.1 2.1,7.1 -0.4,3.2 -2,6.5 -4.6,9.3 -5.1,5.6 -12.4,7.3 -16.2,3.8 -1.7,-1.6 -2.5,-4.1 -2.1,-7.1 0.4,-3.2 2,-6.5 4.6,-9.3 0.9,-0.9 1.8,-1.7 2.8,-2.4 v -5 c -2.1,1.2 -4.1,2.7 -5.9,4.6 -3.2,3.4 -5.2,7.6 -5.7,11.7 -0.5,4.4 0.7,8.1 3.4,10.7 2.1,1.9 4.9,2.9 7.8,2.9 4.8,0 10.1,-2.4 14.3,-6.9 3.2,-3.4 5.2,-7.6 5.7,-11.7 0.7,-4.5 -0.5,-8.3 -3.3,-10.8 z"
         id="path941" />
      <g
         id="g951">
        <path
           style="fill:#f8df88"
           inkscape:connector-curvature="0"
           class="st8"
           d="m 672.2,667.1 -0.3,-5.2 c -0.1,-2.7 -1.6,-5.1 -3.9,-6.5 l -13.8,-8.3 c -2.3,-1.4 -5.1,-1.5 -7.5,-0.4 l -4.7,2.2 c -2.9,1.3 -5.3,3.5 -6.9,6.2 l -24,39.8 c -1.5,2.5 -0.7,5.8 1.8,7.3 l 25.7,15.5 c 2.5,1.5 5.8,0.7 7.3,-1.8 l 24,-39.8 c 1.7,-2.6 2.5,-5.8 2.3,-9 z m -18.4,-3.5 c -2.1,-1.3 -2.8,-4 -1.5,-6.1 1.3,-2.1 4,-2.8 6.1,-1.5 2.1,1.3 2.8,4 1.5,6.1 -1.2,2.1 -4,2.8 -6.1,1.5 z"
           id="path943" />
        <rect
           style="fill:#ffffff"
           x="622.29999"
           y="682.70001"
           transform="matrix(0.8565,0.5162,-0.5162,0.8565,449.1996,-228.4852)"
           class="st9"
           width="26.299999"
           height="21.6"
           id="rect945" />
        <rect
           style="fill:#ffffff"
           x="631.90002"
           y="675.70001"
           transform="matrix(0.8565,0.5162,-0.5162,0.8565,442.3271,-235.7574)"
           class="st9"
           width="26.299999"
           height="3.5999999"
           id="rect947" />
        <rect
           style="fill:#ffffff"
           x="636"
           y="668.90002"
           transform="matrix(0.8565,0.5162,-0.5162,0.8565,439.4023,-238.8523)"
           class="st9"
           width="26.299999"
           height="3.5999999"
           id="rect949" />
      </g>
      <g
         id="g955">
        <path
           style="fill:#b3e2e5"
           inkscape:connector-curvature="0"
           class="st7"
           d="m 658.6,656 c 0.2,1.6 1,2.7 2,3.6 2.3,-1.2 4.5,-2.8 6.4,-4.8 0,0 0,0 0,-0.1 0,0 -0.5,-0.8 -1.5,-1.4 -1,-0.6 -2.2,-0.8 -2.2,-0.8 -1.5,1.5 -3.1,2.7 -4.7,3.5 z"
           id="path953" />
      </g>
    </g>
    <g
       id="g1021"
       transform="matrix(0.26458333,0,0,0.26458333,-176.49768,-27.516449)">
      <path
         id="path977"
         d="m 979.7,587.7 -53.6,27.4 c -1.7,0.9 -3.9,0.2 -4.8,-1.5 L 886,544.5 c -0.9,-1.7 -0.2,-3.9 1.5,-4.8 l 53.6,-27.4 c 1.7,-0.9 3.9,-0.2 4.8,1.5 l 35.4,69.1 c 0.9,1.8 0.2,3.9 -1.6,4.8 z"
         class="st13"
         inkscape:connector-curvature="0"
         style="fill:#0b4a70" />
      <path
         id="path979"
         d="m 978.9,586.2 -53.6,27.4 c -1.7,0.9 -3.9,0.2 -4.8,-1.5 L 885.2,543 c -0.9,-1.7 -0.2,-3.9 1.5,-4.8 l 53.6,-27.4 c 1.7,-0.9 3.9,-0.2 4.8,1.5 l 35.4,69.1 c 0.9,1.7 0.2,3.9 -1.6,4.8 z"
         class="st9"
         inkscape:connector-curvature="0"
         style="fill:#ffffff" />
      <rect
         id="rect981"
         height="14.1"
         width="2.9000001"
         class="st13"
         transform="matrix(0.89,-0.4559,0.4559,0.89,-176.7153,486.9636)"
         y="602.79999"
         x="919.70001"
         style="fill:#0b4a70" />
      <g
         id="g1001">
        <path
           id="path983"
           d="m 930.3,536.2 28.5,72.4 c 0.7,1.8 2.8,2.7 4.6,2 L 994,598.5 c 1.8,-0.7 2.7,-2.8 2,-4.6 l -28.5,-72.4 c -0.7,-1.8 -2.8,-2.7 -4.6,-2 l -30.6,12.1 c -1.8,0.7 -2.7,2.8 -2,4.6 z"
           class="st14"
           inkscape:connector-curvature="0"
           style="fill:#eaeaea" />
        <path
           id="path985"
           d="m 967.6,521.8 10.5,26.6 -37.2,14.6 -10.5,-26.6 c -0.7,-1.8 0.3,-4.2 2.1,-4.9 l 30.7,-12.1 c 1.8,-0.7 3.7,0.5 4.4,2.4 z"
           class="st9"
           inkscape:connector-curvature="0"
           style="fill:#ffffff" />
        <rect
           id="rect987"
           height="4.0999999"
           width="42.200001"
           class="st9"
           transform="matrix(-0.3664,-0.9305,0.9305,-0.3664,777.5848,1692.0422)"
           y="579.20001"
           x="943.79999"
           style="fill:#ffffff" />
        <rect
           id="rect989"
           height="6.1999998"
           width="12.9"
           class="st9"
           transform="matrix(-0.3664,-0.9305,0.9305,-0.3664,788.6444,1719.3372)"
           y="588.09998"
           x="973.20001"
           style="fill:#ffffff" />
        <rect
           id="rect991"
           height="6.1999998"
           width="24.5"
           class="st9"
           transform="matrix(-0.3664,-0.9305,0.9305,-0.3664,797.2071,1681.5229)"
           y="566.20001"
           x="958.90002"
           style="fill:#ffffff" />
        <rect
           id="rect993"
           height="4.0999999"
           width="42.200001"
           class="st9"
           transform="matrix(-0.3664,-0.9305,0.9305,-0.3664,764.7805,1689.1428)"
           y="582.09998"
           x="936.40002"
           style="fill:#ffffff" />
        <rect
           id="rect995"
           height="4.0999999"
           width="22.4"
           class="st14"
           transform="matrix(-0.3664,-0.9305,0.9305,-0.3664,780.1036,1621.4735)"
           y="543.09998"
           x="930.90002"
           style="fill:#eaeaea" />
        <path
           id="path997"
           d="m 967.5,521.5 28.5,72.4 c 0.7,1.8 -0.2,3.8 -2,4.5 l -2.2,0.9 -31.1,-78.9 2.2,-0.9 c 1.9,-0.7 3.9,0.2 4.6,2 z"
           class="st4"
           inkscape:connector-curvature="0"
           style="fill:#e24b4b" />
        <rect
           id="rect999"
           height="13.1"
           width="22.4"
           class="st14"
           transform="matrix(-0.3664,-0.9305,0.9305,-0.3664,806.72,1627.5006)"
           y="532.5"
           x="946.29999"
           style="fill:#eaeaea" />
      </g>
      <path
         id="path1003"
         d="m 977.7,584.1 -56.6,29 -38.6,-75.4 56.8,-29.1 c 1.6,-0.8 3.7,-0.2 4.5,1.5 l 35.5,69.2 c 0.9,1.8 0.2,3.9 -1.6,4.8 z"
         class="st13"
         inkscape:connector-curvature="0"
         style="fill:#0b4a70" />
      <g
         id="g1017">
        <ellipse
           id="ellipse1005"
           ry="20.799999"
           rx="20.9"
           cy="555.79999"
           cx="929.5"
           class="st15"
           transform="matrix(0.89,-0.4559,0.4559,0.89,-151.1557,484.8497)"
           style="fill:none;stroke:#ffffff;stroke-width:1.17700005;stroke-miterlimit:10" />
        <ellipse
           id="ellipse1007"
           ry="20.799999"
           rx="11.2"
           cy="555.79999"
           cx="929.5"
           class="st15"
           transform="matrix(0.89,-0.4559,0.4559,0.89,-151.1557,484.8497)"
           style="fill:none;stroke:#ffffff;stroke-width:1.17700005;stroke-miterlimit:10" />
        <line
           id="line1009"
           y2="574.29999"
           x2="939"
           y1="537.20001"
           x1="920"
           class="st15"
           style="fill:none;stroke:#ffffff;stroke-width:1.17700005;stroke-miterlimit:10" />
        <line
           id="line1011"
           y2="537.90002"
           x2="940.20001"
           y1="554"
           x1="908.79999"
           class="st15"
           style="fill:none;stroke:#ffffff;stroke-width:1.17700005;stroke-miterlimit:10" />
        <line
           id="line1013"
           y2="547"
           x2="948.20001"
           y1="565.79999"
           x1="911.5"
           class="st15"
           style="fill:none;stroke:#ffffff;stroke-width:1.17700005;stroke-miterlimit:10" />
        <line
           id="line1015"
           y2="558.90002"
           x2="949.59998"
           y1="574.20001"
           x1="919.79999"
           class="st15"
           style="fill:none;stroke:#ffffff;stroke-width:1.17700005;stroke-miterlimit:10" />
      </g>
      <rect
         id="rect1019"
         height="7.8000002"
         width="41.700001"
         class="st16"
         transform="matrix(0.89,-0.4559,0.4559,0.89,-162.4213,494.5332)"
         y="580.09998"
         x="923.09998"
         style="fill:#009dcb" />
    </g>
  </g>
</svg>
